<svg id="Layer_1" data-name="Layer 1" xmlns="http://www.w3.org/2000/svg" viewBox="0 0 245.35 103.8"><defs><style>.cls-1{fill:#5187be;}.cls-2,.cls-5{fill:#0769b3;}.cls-3{fill:#ccc;}.cls-4{fill:#075880;}.cls-5{font-size:13.22px;font-family:Montserrat-Regular, Montserrat;}.cls-6{letter-spacing:-0.01em;}.cls-7{letter-spacing:-0.01em;}.cls-8{letter-spacing:0em;}.cls-9{letter-spacing:-0.01em;}</style></defs><title>formal without slogan</title><polygon class="cls-1" points="0.4 81.31 4.64 81.31 28.31 0.31 23.88 0.31 0.4 81.31"/><polygon class="cls-2" points="10.78 81.31 15.02 81.31 38.69 0.31 34.26 0.31 10.78 81.31"/><polygon class="cls-2" points="45.65 60.81 37.38 38.49 49.06 0 59.82 30.22 45.65 60.81"/><polygon class="cls-2" points="91.41 81.1 76.65 29.84 92.73 0.1 116.27 81.1 91.41 81.1"/><polygon class="cls-3" points="79.04 38.34 79.84 41.11 93.53 3.07 92.73 0.31 79.04 38.34"/><polygon class="cls-4" points="45.65 60.81 70.96 60.81 92.73 0.31 67.92 0.31 45.65 60.81"/><polygon class="cls-4" points="21.16 81.31 25.4 81.31 49.06 0.31 44.63 0.31 21.16 81.31"/><polygon class="cls-3" points="35.25 32.68 37.67 39.29 49.06 0 44.63 0 35.25 32.68"/><path class="cls-2" d="M502.26,154.48h25.91v81.09H502.26Z" transform="translate(-374.64 -154.4)"/><path class="cls-2" d="M540.84,154.48h78.57v20H593.05v61.07H567.2V174.5H540.84Z" transform="translate(-374.64 -154.4)"/><text class="cls-5" transform="translate(0 100.34)">MODEL IN<tspan class="cls-6" x="69.48" y="0">S</tspan><tspan x="77.47" y="0">TI</tspan><tspan class="cls-7" x="89.06" y="0">TU</tspan><tspan x="106.75" y="0">TE OF T</tspan><tspan class="cls-8" x="157.16" y="0">E</tspan><tspan x="165.95" y="0">CHNO</tspan><tspan class="cls-9" x="208.04" y="0">L</tspan><tspan x="215.65" y="0">OGY</tspan></text></svg>