<svg id="Layer_1" data-name="Layer 1" xmlns="http://www.w3.org/2000/svg" viewBox="0 0 241.97 116.49"><defs><style>.cls-1{fill:#5187be;}.cls-2,.cls-5{fill:#0769b3;}.cls-3{fill:#ccc;}.cls-10,.cls-4{fill:#075880;}.cls-5{font-size:13.03px;}.cls-10,.cls-5{font-family:Montserrat-Regular, Montserrat;}.cls-6{letter-spacing:-0.01em;}.cls-7{letter-spacing:-0.01em;}.cls-8{letter-spacing:0em;}.cls-9{letter-spacing:-0.01em;}.cls-10{font-size:8.29px;}.cls-11{letter-spacing:0em;}.cls-12{letter-spacing:0em;}.cls-13{letter-spacing:-0.01em;}.cls-14{letter-spacing:0.01em;}.cls-15{letter-spacing:-0.01em;}.cls-16{letter-spacing:0em;}.cls-17{letter-spacing:0em;}.cls-18{letter-spacing:-0.01em;}.cls-19{letter-spacing:0em;}.cls-20{letter-spacing:0em;}.cls-21{letter-spacing:-0.01em;}.cls-22{letter-spacing:0em;}.cls-23{letter-spacing:-0.01em;}.cls-24{letter-spacing:0.01em;}.cls-25{letter-spacing:-0.01em;}.cls-26{letter-spacing:-0.01em;}.cls-27{letter-spacing:0.01em;}.cls-28{letter-spacing:-0.01em;}.cls-29{letter-spacing:-0.01em;}.cls-30{letter-spacing:-0.01em;}.cls-31{letter-spacing:-0.02em;}.cls-32{letter-spacing:-0.01em;}.cls-33{letter-spacing:0em;}.cls-34{letter-spacing:0em;}.cls-35{letter-spacing:0em;}.cls-36{letter-spacing:0em;}.cls-37{letter-spacing:0em;}</style></defs><title>formal main</title><polygon class="cls-1" points="0.58 80.13 4.76 80.13 28.08 0.31 23.71 0.31 0.58 80.13"/><polygon class="cls-2" points="10.81 80.13 14.98 80.13 38.31 0.31 33.94 0.31 10.81 80.13"/><polygon class="cls-2" points="45.17 59.92 37.02 37.93 48.53 0 59.13 29.78 45.17 59.92"/><polygon class="cls-2" points="90.26 79.92 75.72 29.41 91.56 0.1 114.76 79.92 90.26 79.92"/><polygon class="cls-3" points="78.08 37.79 78.86 40.52 92.35 3.02 91.56 0.31 78.08 37.79"/><polygon class="cls-4" points="45.17 59.92 70.11 59.92 91.56 0.31 67.12 0.31 45.17 59.92"/><polygon class="cls-4" points="21.03 80.13 25.21 80.13 48.53 0.31 44.17 0.31 21.03 80.13"/><polygon class="cls-3" points="34.92 32.21 37.31 38.72 48.53 0 44.17 0 34.92 32.21"/><path class="cls-2" d="M482,153.84H507.5v79.91H482Z" transform="translate(-356.03 -153.76)"/><path class="cls-2" d="M520,153.84h77.43v19.73h-26v60.18H546V173.57H520Z" transform="translate(-356.03 -153.76)"/><text class="cls-5" transform="translate(0.18 98.88)">MODEL IN<tspan class="cls-6" x="68.47" y="0">S</tspan><tspan x="76.35" y="0">TI</tspan><tspan class="cls-7" x="87.76" y="0">TU</tspan><tspan x="105.19" y="0">TE OF T</tspan><tspan class="cls-8" x="154.87" y="0">E</tspan><tspan x="163.54" y="0">CHNO</tspan><tspan class="cls-9" x="205.02" y="0">L</tspan><tspan x="212.51" y="0">OGY</tspan></text><rect class="cls-4" y="102.31" width="240.48" height="0.68"/><text class="cls-10" transform="translate(21.72 114.31) scale(1.13 1)">A <tspan class="cls-11" x="8.12" y="0">C</tspan><tspan class="cls-12" x="14.05" y="0">o</tspan><tspan class="cls-13" x="19.26" y="0">l</tspan><tspan x="21.4" y="0">l</tspan><tspan class="cls-14" x="23.63" y="0">e</tspan><tspan class="cls-12" x="28.73" y="0">g</tspan><tspan x="34.44" y="0">e </tspan><tspan class="cls-15" x="41.62" y="0">I</tspan><tspan class="cls-16" x="44.05" y="0">n</tspan><tspan class="cls-17" x="49.7" y="0">s</tspan><tspan x="53.79" y="0">p</tspan><tspan class="cls-18" x="59.41" y="0">iri</tspan><tspan class="cls-19" x="66.93" y="0">n</tspan><tspan class="cls-20" x="72.54" y="0">g </tspan><tspan class="cls-21" x="80.4" y="0">In</tspan><tspan class="cls-22" x="88.37" y="0">n</tspan><tspan class="cls-23" x="94" y="0">o</tspan><tspan class="cls-24" x="99.15" y="0">v</tspan><tspan class="cls-25" x="103.74" y="0">a</tspan><tspan class="cls-26" x="108.53" y="0">t</tspan><tspan class="cls-27" x="111.84" y="0">i</tspan><tspan class="cls-28" x="114.12" y="0">v</tspan><tspan x="118.57" y="0">e </tspan><tspan class="cls-29" x="125.75" y="0">I</tspan><tspan class="cls-30" x="128.18" y="0">n</tspan><tspan class="cls-31" x="133.68" y="0">t</tspan><tspan x="136.9" y="0">e</tspan><tspan class="cls-32" x="141.91" y="0">ll</tspan><tspan class="cls-33" x="146.19" y="0">i</tspan><tspan class="cls-34" x="148.38" y="0">g</tspan><tspan class="cls-35" x="154.09" y="0">e</tspan><tspan class="cls-36" x="159.08" y="0">n</tspan><tspan class="cls-37" x="164.7" y="0">c</tspan><tspan x="169.35" y="0">e</tspan></text></svg>