<svg id="Layer_1" data-name="Layer 1" xmlns="http://www.w3.org/2000/svg" viewBox="0 0 242.54 102.66"><defs><style>.cls-1{fill:#d9325b;}.cls-2{fill:#00ada7;}.cls-3{fill:#0769b3;}.cls-4,.cls-6{fill:#434343;}.cls-5{fill:#e78732;}.cls-6{font-size:13.07px;font-family:Montserrat-Regular, Montserrat;}.cls-7{letter-spacing:-0.01em;}.cls-8{letter-spacing:-0.01em;}.cls-9{letter-spacing:0em;}.cls-10{letter-spacing:-0.01em;}</style></defs><title>main logo withouit slogan</title><polygon class="cls-1" points="0.4 80.37 4.59 80.37 27.98 0.31 23.6 0.31 0.4 80.37"/><polygon class="cls-2" points="10.65 80.37 14.85 80.37 38.24 0.31 33.86 0.31 10.65 80.37"/><polygon class="cls-3" points="45.12 60.11 36.95 38.05 48.5 0 59.13 29.87 45.12 60.11"/><polygon class="cls-3" points="90.36 80.37 75.77 29.71 91.66 0.31 114.93 80.37 90.36 80.37"/><polygon class="cls-4" points="78.13 37.9 78.92 40.64 92.45 3.03 91.66 0.31 78.13 37.9"/><polygon class="cls-1" points="45.12 60.11 70.14 60.11 91.66 0.31 67.14 0.31 45.12 60.11"/><polygon class="cls-5" points="20.91 80.37 25.11 80.37 48.5 0.31 44.12 0.31 20.91 80.37"/><polygon class="cls-4" points="34.85 32.3 37.24 38.84 48.5 0 44.12 0 34.85 32.3"/><path class="cls-3" d="M484.62,203.27h25.61v80.16H484.62Z" transform="translate(-358.47 -203.19)"/><path class="cls-3" d="M522.75,203.27h77.67v19.8H574.36v60.36H548.81V223.07H522.75Z" transform="translate(-358.47 -203.19)"/><text class="cls-6" transform="translate(0 99.23)">MODEL IN<tspan class="cls-7" x="68.68" y="0">S</tspan><tspan x="76.58" y="0">TI</tspan><tspan class="cls-8" x="88.03" y="0">TU</tspan><tspan x="105.52" y="0">TE OF T</tspan><tspan class="cls-9" x="155.35" y="0">E</tspan><tspan x="164.04" y="0">CHNO</tspan><tspan class="cls-10" x="205.65" y="0">L</tspan><tspan x="213.17" y="0">OGY</tspan></text></svg>