<svg id="Layer_1" data-name="Layer 1" xmlns="http://www.w3.org/2000/svg" viewBox="0 0 305.44 147.1"><defs><style>.cls-1{fill:#d9325b;}.cls-2{fill:#00ada7;}.cls-3{fill:#0769b3;}.cls-11,.cls-4,.cls-6{fill:#434343;}.cls-5{fill:#e78732;}.cls-6{font-size:16.45px;}.cls-11,.cls-6{font-family:Montserrat-Regular, Montserrat;}.cls-7{letter-spacing:-0.01em;}.cls-8{letter-spacing:0em;}.cls-9{letter-spacing:-0.01em;}.cls-10{letter-spacing:0em;}.cls-11{font-size:10.47px;}.cls-12{letter-spacing:-0.02em;}.cls-13{letter-spacing:-0.01em;}.cls-14{letter-spacing:-0.02em;}.cls-15{letter-spacing:-0.01em;}.cls-16{letter-spacing:-0.01em;}.cls-17{letter-spacing:-0.02em;}.cls-18{letter-spacing:-0.01em;}.cls-19{letter-spacing:-0.01em;}.cls-20{letter-spacing:-0.01em;}.cls-21{letter-spacing:-0.02em;}.cls-22{letter-spacing:-0.01em;}.cls-23{letter-spacing:-0.01em;}.cls-24{letter-spacing:-0.02em;}.cls-25{letter-spacing:0em;}.cls-26{letter-spacing:-0.02em;}.cls-27{letter-spacing:-0.02em;}.cls-28{letter-spacing:0em;}.cls-29{letter-spacing:-0.02em;}.cls-30{letter-spacing:-0.03em;}.cls-31{letter-spacing:-0.03em;}.cls-32{letter-spacing:-0.01em;}.cls-33{letter-spacing:-0.02em;}.cls-34{letter-spacing:-0.02em;}.cls-35{letter-spacing:-0.01em;}.cls-36{letter-spacing:-0.01em;}.cls-37{letter-spacing:-0.01em;}</style></defs><title>MIT main logo</title><polygon class="cls-1" points="0.73 101.14 6 101.14 35.44 0.39 29.93 0.39 0.73 101.14"/><polygon class="cls-2" points="13.64 101.14 18.91 101.14 48.35 0.39 42.84 0.39 13.64 101.14"/><polygon class="cls-3" points="57.01 75.64 46.73 47.88 61.26 0 74.64 37.59 57.01 75.64"/><polygon class="cls-3" points="113.94 101.14 95.58 37.38 115.58 0.39 144.86 101.14 113.94 101.14"/><polygon class="cls-4" points="98.55 47.7 99.54 51.14 116.57 3.82 115.58 0.39 98.55 47.7"/><polygon class="cls-1" points="57.01 75.64 88.5 75.64 115.58 0.39 84.72 0.39 57.01 75.64"/><polygon class="cls-5" points="26.55 101.14 31.82 101.14 61.26 0.39 55.75 0.39 26.55 101.14"/><polygon class="cls-4" points="44.08 40.65 47.1 48.87 61.26 0 55.75 0 44.08 40.65"/><path class="cls-3" d="M498.54,159.34h32.23V260.2H498.54Z" transform="translate(-339.57 -159.23)"/><path class="cls-3" d="M546.53,159.34h97.74v24.9H611.48v76H579.32v-76H546.53Z" transform="translate(-339.57 -159.23)"/><text class="cls-6" transform="translate(0.23 124.88)">MODEL IN<tspan class="cls-7" x="86.42" y="0">S</tspan><tspan class="cls-8" x="96.37" y="0">TI</tspan><tspan class="cls-9" x="110.78" y="0">TU</tspan><tspan x="132.78" y="0">TE OF T</tspan><tspan class="cls-10" x="195.49" y="0">E</tspan><tspan x="206.43" y="0">CHNO</tspan><tspan class="cls-9" x="258.79" y="0">L</tspan><tspan x="268.25" y="0">OGY</tspan></text><rect class="cls-1" y="129.21" width="303.55" height="0.86"/><text class="cls-11" transform="translate(29.72 144.36) scale(1.13 1)">A <tspan class="cls-12" x="10.25" y="0">C</tspan><tspan class="cls-13" x="17.61" y="0">o</tspan><tspan class="cls-14" x="24.08" y="0">l</tspan><tspan class="cls-15" x="26.66" y="0">l</tspan><tspan x="29.36" y="0">e</tspan><tspan class="cls-16" x="35.68" y="0">g</tspan><tspan x="42.76" y="0">e </tspan><tspan class="cls-17" x="51.83" y="0">I</tspan><tspan class="cls-18" x="54.77" y="0">n</tspan><tspan class="cls-19" x="61.79" y="0">s</tspan><tspan class="cls-20" x="66.83" y="0">p</tspan><tspan class="cls-21" x="73.81" y="0">iri</tspan><tspan class="cls-22" x="82.94" y="0">n</tspan><tspan x="89.9" y="0">g </tspan><tspan class="cls-17" x="99.82" y="0">In</tspan><tspan class="cls-23" x="109.64" y="0">n</tspan><tspan class="cls-24" x="116.62" y="0">o</tspan><tspan class="cls-25" x="123.01" y="0">v</tspan><tspan class="cls-26" x="128.68" y="0">a</tspan><tspan class="cls-27" x="134.6" y="0">t</tspan><tspan class="cls-28" x="138.66" y="0">i</tspan><tspan class="cls-29" x="141.42" y="0">v</tspan><tspan x="146.92" y="0">e </tspan><tspan class="cls-17" x="155.99" y="0">I</tspan><tspan class="cls-30" x="158.93" y="0">n</tspan><tspan class="cls-31" x="165.75" y="0">t</tspan><tspan class="cls-32" x="169.69" y="0">e</tspan><tspan class="cls-33" x="175.89" y="0">ll</tspan><tspan class="cls-34" x="181.05" y="0">i</tspan><tspan class="cls-16" x="183.7" y="0">g</tspan><tspan class="cls-35" x="190.78" y="0">e</tspan><tspan class="cls-36" x="196.97" y="0">n</tspan><tspan class="cls-37" x="203.95" y="0">c</tspan><tspan class="cls-25" x="209.7" y="0">e</tspan></text></svg>