<svg id="Layer_1" data-name="Layer 1" xmlns="http://www.w3.org/2000/svg" viewBox="0 0 256.53 108.58"><defs><style>.cls-1,.cls-3{fill:#555554;}.cls-2{fill:#fff;}.cls-3{font-size:13.82px;font-family:Montserrat-Regular, Montserrat;}.cls-4{letter-spacing:-0.01em;}.cls-5{letter-spacing:-0.01em;}.cls-6{letter-spacing:0em;}.cls-7{letter-spacing:-0.01em;}</style></defs><title>stamp</title><polygon class="cls-1" points="0.42 85.01 4.85 85.01 29.6 0.33 24.97 0.33 0.42 85.01"/><polygon class="cls-1" points="11.27 85.01 15.7 85.01 40.45 0.33 35.82 0.33 11.27 85.01"/><polygon class="cls-1" points="47.73 63.58 39.08 40.24 51.3 0 62.55 31.6 47.73 63.58"/><polygon class="cls-1" points="95.57 85.01 80.15 31.42 96.95 0.33 121.56 85.01 95.57 85.01"/><polygon class="cls-2" points="82.64 40.09 83.47 42.99 97.79 3.21 96.95 0.33 82.64 40.09"/><polygon class="cls-1" points="47.73 63.58 74.19 63.58 96.95 0.33 71.02 0.33 47.73 63.58"/><polygon class="cls-1" points="22.12 85.01 26.55 85.01 51.3 0.33 46.67 0.33 22.12 85.01"/><polygon class="cls-2" points="36.86 34.17 39.39 41.08 51.3 0 46.67 0 36.86 34.17"/><path class="cls-1" d="M513.9,180.3H541v84.78H513.9Z" transform="translate(-380.47 -180.21)"/><path class="cls-1" d="M554.23,180.3h82.16v20.94H608.82v63.84h-27V201.24H554.23Z" transform="translate(-380.47 -180.21)"/><text class="cls-3" transform="translate(0 104.96)">MODEL IN<tspan class="cls-4" x="72.64" y="0">S</tspan><tspan x="81" y="0">TI</tspan><tspan class="cls-5" x="93.11" y="0">TU</tspan><tspan x="111.61" y="0">TE OF T</tspan><tspan class="cls-6" x="164.32" y="0">E</tspan><tspan x="173.51" y="0">CHNO</tspan><tspan class="cls-7" x="217.52" y="0">L</tspan><tspan x="225.47" y="0">OGY</tspan></text></svg>